# xmcd CD database file
#
# Track frame offsets:
#	150
#	25046
#	50870
#	73607
#	91755
#	110591
#	132788
#	148995
#	177332
#	200378
#	224375
#
# Disc length: 3258 seconds
#
# Revision: 0
# Processed by: cddbd v1.5.1PL0 Copyright (c) Steve Scherf et al.
# Submitted via: CDex 1.50
#
DISCID=a50cb80b
DTITLE=Martha Brooks - change of heart
DYEAR=2001
DGENRE=Jazz
TTITLE0=Deed I Do
TTITLE1=Change of Heart
TTITLE2=Basin Street Blues
TTITLE3=How Deep is the Ocean
TTITLE4=Since You've Gone
TTITLE5=Trinidad
TTITLE6=Lip Sync
TTITLE7=Don't Blame Me
TTITLE8=Fantasy
TTITLE9=Just for a Thrill
TTITLE10=No More Blues
EXTD=YEAR: 2001
EXTT0=
EXTT1=
EXTT2=
EXTT3=
EXTT4=
EXTT5=
EXTT6=
EXTT7=
EXTT8=
EXTT9=
EXTT10=
PLAYORDER=
